# xmcd CD database file
#
# Track frame offsets:
#	150
#	11580
#	22003
#	29146
#	35557
#	52085
#	61263
#	72452
#	80795
#	92782
#	109212
#	122586
#
# Disc length: 1853 seconds
#
# Revision: 0
# Processed by: cddbd v1.5.1PL0 Copyright (c) Steve Scherf et al.
# Submitted via: CDex 1.51
#
DISCID=ad073b0c
DTITLE=Johnny Cash - Live Cash
DYEAR=1900
DGENRE=Country
TTITLE0=Hey Porter
TTITLE1=Wreck of the Old '97
TTITLE2=Pickin' Time
TTITLE3=No Settin' Sun
TTITLE4=(Ghost) Riders in the Sky
TTITLE5=Gospel Boogie
TTITLE6=The Fourth Man
TTITLE7=Casey Jones
TTITLE8=Forty Shades of Green
TTITLE9=The Baron
TTITLE10=Don't Take Your Guns to Town
TTITLE11=Will the Circle Be Unbroken?
EXTD=
EXTT0=
EXTT1=
EXTT2=
EXTT3=
EXTT4=
EXTT5=
EXTT6=
EXTT7=
EXTT8=
EXTT9=
EXTT10=
EXTT11=
PLAYORDER=
